<?xml version="1.0" encoding="utf-8" standalone="no"?>
<!DOCTYPE svg PUBLIC "-//W3C//DTD SVG 1.1//EN"
  "http://www.w3.org/Graphics/SVG/1.1/DTD/svg11.dtd">
<svg xmlns:xlink="http://www.w3.org/1999/xlink" width="845.5892pt" height="273.201825pt" viewBox="0 0 845.5892 273.201825" xmlns="http://www.w3.org/2000/svg" version="1.1">
 <metadata>
  <rdf:RDF xmlns:dc="http://purl.org/dc/elements/1.1/" xmlns:cc="http://creativecommons.org/ns#" xmlns:rdf="http://www.w3.org/1999/02/22-rdf-syntax-ns#">
   <cc:Work>
    <dc:type rdf:resource="http://purl.org/dc/dcmitype/StillImage"/>
    <dc:date>2024-02-26T14:22:32.863070</dc:date>
    <dc:format>image/svg+xml</dc:format>
    <dc:creator>
     <cc:Agent>
      <dc:title>Matplotlib v3.8.2, https://matplotlib.org/</dc:title>
     </cc:Agent>
    </dc:creator>
   </cc:Work>
  </rdf:RDF>
 </metadata>
 <defs>
  <style type="text/css">*{stroke-linejoin: round; stroke-linecap: butt}</style>
 </defs>
 <g id="figure_1">
  <g id="patch_1">
   <path d="M 0 273.201825 
L 845.5892 273.201825 
L 845.5892 0 
L 0 0 
z
" style="fill: #ffffff"/>
  </g>
  <g id="axes_1">
   <g id="patch_2">
    <path d="M 49.2068 226.598025 
L 296.775268 226.598025 
L 296.775268 27.515625 
L 49.2068 27.515625 
z
" style="fill: #eaeaf2"/>
   </g>
   <g id="matplotlib.axis_1">
    <g id="xtick_1">
     <g id="text_1">
      <!-- 20 -->
      <g style="fill: #262626" transform="translate(92.641178 244.976225) scale(0.1408 -0.1408)">
       <defs>
        <path id="ArialMT-32" d="M 3222 541 
L 3222 0 
L 194 0 
Q 188 203 259 391 
Q 375 700 629 1000 
Q 884 1300 1366 1694 
Q 2113 2306 2375 2664 
Q 2638 3022 2638 3341 
Q 2638 3675 2398 3904 
Q 2159 4134 1775 4134 
Q 1369 4134 1125 3890 
Q 881 3647 878 3216 
L 300 3275 
Q 359 3922 746 4261 
Q 1134 4600 1788 4600 
Q 2447 4600 2831 4234 
Q 3216 3869 3216 3328 
Q 3216 3053 3103 2787 
Q 2991 2522 2730 2228 
Q 2469 1934 1863 1422 
Q 1356 997 1212 845 
Q 1069 694 975 541 
L 3222 541 
z
" transform="scale(0.015625)"/>
        <path id="ArialMT-30" d="M 266 2259 
Q 266 3072 433 3567 
Q 600 4063 929 4331 
Q 1259 4600 1759 4600 
Q 2128 4600 2406 4451 
Q 2684 4303 2865 4023 
Q 3047 3744 3150 3342 
Q 3253 2941 3253 2259 
Q 3253 1453 3087 958 
Q 2922 463 2592 192 
Q 2263 -78 1759 -78 
Q 1097 -78 719 397 
Q 266 969 266 2259 
z
M 844 2259 
Q 844 1131 1108 757 
Q 1372 384 1759 384 
Q 2147 384 2411 759 
Q 2675 1134 2675 2259 
Q 2675 3391 2411 3762 
Q 2147 4134 1753 4134 
Q 1366 4134 1134 3806 
Q 844 3388 844 2259 
z
" transform="scale(0.015625)"/>
       </defs>
       <use xlink:href="#ArialMT-32"/>
       <use xlink:href="#ArialMT-30" x="55.615234"/>
      </g>
     </g>
    </g>
    <g id="xtick_2">
     <g id="text_2">
      <!-- 40 -->
      <g style="fill: #262626" transform="translate(192.668842 244.976225) scale(0.1408 -0.1408)">
       <defs>
        <path id="ArialMT-34" d="M 2069 0 
L 2069 1097 
L 81 1097 
L 81 1613 
L 2172 4581 
L 2631 4581 
L 2631 1613 
L 3250 1613 
L 3250 1097 
L 2631 1097 
L 2631 0 
L 2069 0 
z
M 2069 1613 
L 2069 3678 
L 634 1613 
L 2069 1613 
z
" transform="scale(0.015625)"/>
       </defs>
       <use xlink:href="#ArialMT-34"/>
       <use xlink:href="#ArialMT-30" x="55.615234"/>
      </g>
     </g>
    </g>
   </g>
   <g id="matplotlib.axis_2">
    <g id="ytick_1">
     <g id="text_3">
      <!-- 0 -->
      <g style="fill: #262626" transform="translate(33.077 231.637125) scale(0.1408 -0.1408)">
       <use xlink:href="#ArialMT-30"/>
      </g>
     </g>
    </g>
    <g id="ytick_2">
     <g id="text_4">
      <!-- 20 -->
      <g style="fill: #262626" transform="translate(25.2472 120.106369) scale(0.1408 -0.1408)">
       <use xlink:href="#ArialMT-32"/>
       <use xlink:href="#ArialMT-30" x="55.615234"/>
      </g>
     </g>
    </g>
    <g id="text_5">
     <!-- Count -->
     <g style="fill: #262626" transform="translate(18.1944 147.549225) rotate(-90) scale(0.1536 -0.1536)">
      <defs>
       <path id="ArialMT-43" d="M 3763 1606 
L 4369 1453 
Q 4178 706 3683 314 
Q 3188 -78 2472 -78 
Q 1731 -78 1267 223 
Q 803 525 561 1097 
Q 319 1669 319 2325 
Q 319 3041 592 3573 
Q 866 4106 1370 4382 
Q 1875 4659 2481 4659 
Q 3169 4659 3637 4309 
Q 4106 3959 4291 3325 
L 3694 3184 
Q 3534 3684 3231 3912 
Q 2928 4141 2469 4141 
Q 1941 4141 1586 3887 
Q 1231 3634 1087 3207 
Q 944 2781 944 2328 
Q 944 1744 1114 1308 
Q 1284 872 1643 656 
Q 2003 441 2422 441 
Q 2931 441 3284 734 
Q 3638 1028 3763 1606 
z
" transform="scale(0.015625)"/>
       <path id="ArialMT-6f" d="M 213 1659 
Q 213 2581 725 3025 
Q 1153 3394 1769 3394 
Q 2453 3394 2887 2945 
Q 3322 2497 3322 1706 
Q 3322 1066 3130 698 
Q 2938 331 2570 128 
Q 2203 -75 1769 -75 
Q 1072 -75 642 372 
Q 213 819 213 1659 
z
M 791 1659 
Q 791 1022 1069 705 
Q 1347 388 1769 388 
Q 2188 388 2466 706 
Q 2744 1025 2744 1678 
Q 2744 2294 2464 2611 
Q 2184 2928 1769 2928 
Q 1347 2928 1069 2612 
Q 791 2297 791 1659 
z
" transform="scale(0.015625)"/>
       <path id="ArialMT-75" d="M 2597 0 
L 2597 488 
Q 2209 -75 1544 -75 
Q 1250 -75 995 37 
Q 741 150 617 320 
Q 494 491 444 738 
Q 409 903 409 1263 
L 409 3319 
L 972 3319 
L 972 1478 
Q 972 1038 1006 884 
Q 1059 663 1231 536 
Q 1403 409 1656 409 
Q 1909 409 2131 539 
Q 2353 669 2445 892 
Q 2538 1116 2538 1541 
L 2538 3319 
L 3100 3319 
L 3100 0 
L 2597 0 
z
" transform="scale(0.015625)"/>
       <path id="ArialMT-6e" d="M 422 0 
L 422 3319 
L 928 3319 
L 928 2847 
Q 1294 3394 1984 3394 
Q 2284 3394 2536 3286 
Q 2788 3178 2913 3003 
Q 3038 2828 3088 2588 
Q 3119 2431 3119 2041 
L 3119 0 
L 2556 0 
L 2556 2019 
Q 2556 2363 2490 2533 
Q 2425 2703 2258 2804 
Q 2091 2906 1866 2906 
Q 1506 2906 1245 2678 
Q 984 2450 984 1813 
L 984 0 
L 422 0 
z
" transform="scale(0.015625)"/>
       <path id="ArialMT-74" d="M 1650 503 
L 1731 6 
Q 1494 -44 1306 -44 
Q 1000 -44 831 53 
Q 663 150 594 308 
Q 525 466 525 972 
L 525 2881 
L 113 2881 
L 113 3319 
L 525 3319 
L 525 4141 
L 1084 4478 
L 1084 3319 
L 1650 3319 
L 1650 2881 
L 1084 2881 
L 1084 941 
Q 1084 700 1114 631 
Q 1144 563 1211 522 
Q 1278 481 1403 481 
Q 1497 481 1650 503 
z
" transform="scale(0.015625)"/>
      </defs>
      <use xlink:href="#ArialMT-43"/>
      <use xlink:href="#ArialMT-6f" x="72.216797"/>
      <use xlink:href="#ArialMT-75" x="127.832031"/>
      <use xlink:href="#ArialMT-6e" x="183.447266"/>
      <use xlink:href="#ArialMT-74" x="239.0625"/>
     </g>
    </g>
   </g>
   <g id="patch_3">
    <path d="M 60.459912 226.598025 
L 97.970286 226.598025 
L 97.970286 187.56226 
L 60.459912 187.56226 
z
" clip-path="url(#p2f84165aa0)" style="fill: #46b5e6; fill-opacity: 0.8; stroke: #ffffff; stroke-width: 0.8; stroke-linejoin: miter"/>
   </g>
   <g id="patch_4">
    <path d="M 97.970286 226.598025 
L 135.48066 226.598025 
L 135.48066 187.56226 
L 97.970286 187.56226 
z
" clip-path="url(#p2f84165aa0)" style="fill: #46b5e6; fill-opacity: 0.8; stroke: #ffffff; stroke-width: 0.8; stroke-linejoin: miter"/>
   </g>
   <g id="patch_5">
    <path d="M 135.48066 226.598025 
L 172.991034 226.598025 
L 172.991034 193.138798 
L 135.48066 193.138798 
z
" clip-path="url(#p2f84165aa0)" style="fill: #46b5e6; fill-opacity: 0.8; stroke: #ffffff; stroke-width: 0.8; stroke-linejoin: miter"/>
   </g>
   <g id="patch_6">
    <path d="M 172.991034 226.598025 
L 210.501408 226.598025 
L 210.501408 209.868412 
L 172.991034 209.868412 
z
" clip-path="url(#p2f84165aa0)" style="fill: #46b5e6; fill-opacity: 0.8; stroke: #ffffff; stroke-width: 0.8; stroke-linejoin: miter"/>
   </g>
   <g id="patch_7">
    <path d="M 210.501408 226.598025 
L 248.011782 226.598025 
L 248.011782 204.291874 
L 210.501408 204.291874 
z
" clip-path="url(#p2f84165aa0)" style="fill: #46b5e6; fill-opacity: 0.8; stroke: #ffffff; stroke-width: 0.8; stroke-linejoin: miter"/>
   </g>
   <g id="patch_8">
    <path d="M 248.011782 226.598025 
L 285.522156 226.598025 
L 285.522156 209.868412 
L 248.011782 209.868412 
z
" clip-path="url(#p2f84165aa0)" style="fill: #46b5e6; fill-opacity: 0.8; stroke: #ffffff; stroke-width: 0.8; stroke-linejoin: miter"/>
   </g>
   <g id="patch_9">
    <path d="M 49.2068 226.598025 
L 49.2068 27.515625 
" style="fill: none; stroke: #ffffff; stroke-linejoin: miter; stroke-linecap: square"/>
   </g>
   <g id="patch_10">
    <path d="M 49.2068 226.598025 
L 296.775268 226.598025 
" style="fill: none; stroke: #ffffff; stroke-linejoin: miter; stroke-linecap: square"/>
   </g>
   <g id="text_6">
    <!-- Mean Age 30.7 -->
    <g style="fill: #262626" transform="translate(197.747881 52.360417) scale(0.14 -0.14)">
     <defs>
      <path id="ArialMT-4d" d="M 475 0 
L 475 4581 
L 1388 4581 
L 2472 1338 
Q 2622 884 2691 659 
Q 2769 909 2934 1394 
L 4031 4581 
L 4847 4581 
L 4847 0 
L 4263 0 
L 4263 3834 
L 2931 0 
L 2384 0 
L 1059 3900 
L 1059 0 
L 475 0 
z
" transform="scale(0.015625)"/>
      <path id="ArialMT-65" d="M 2694 1069 
L 3275 997 
Q 3138 488 2766 206 
Q 2394 -75 1816 -75 
Q 1088 -75 661 373 
Q 234 822 234 1631 
Q 234 2469 665 2931 
Q 1097 3394 1784 3394 
Q 2450 3394 2872 2941 
Q 3294 2488 3294 1666 
Q 3294 1616 3291 1516 
L 816 1516 
Q 847 969 1125 678 
Q 1403 388 1819 388 
Q 2128 388 2347 550 
Q 2566 713 2694 1069 
z
M 847 1978 
L 2700 1978 
Q 2663 2397 2488 2606 
Q 2219 2931 1791 2931 
Q 1403 2931 1139 2672 
Q 875 2413 847 1978 
z
" transform="scale(0.015625)"/>
      <path id="ArialMT-61" d="M 2588 409 
Q 2275 144 1986 34 
Q 1697 -75 1366 -75 
Q 819 -75 525 192 
Q 231 459 231 875 
Q 231 1119 342 1320 
Q 453 1522 633 1644 
Q 813 1766 1038 1828 
Q 1203 1872 1538 1913 
Q 2219 1994 2541 2106 
Q 2544 2222 2544 2253 
Q 2544 2597 2384 2738 
Q 2169 2928 1744 2928 
Q 1347 2928 1158 2789 
Q 969 2650 878 2297 
L 328 2372 
Q 403 2725 575 2942 
Q 747 3159 1072 3276 
Q 1397 3394 1825 3394 
Q 2250 3394 2515 3294 
Q 2781 3194 2906 3042 
Q 3031 2891 3081 2659 
Q 3109 2516 3109 2141 
L 3109 1391 
Q 3109 606 3145 398 
Q 3181 191 3288 0 
L 2700 0 
Q 2613 175 2588 409 
z
M 2541 1666 
Q 2234 1541 1622 1453 
Q 1275 1403 1131 1340 
Q 988 1278 909 1158 
Q 831 1038 831 891 
Q 831 666 1001 516 
Q 1172 366 1500 366 
Q 1825 366 2078 508 
Q 2331 650 2450 897 
Q 2541 1088 2541 1459 
L 2541 1666 
z
" transform="scale(0.015625)"/>
      <path id="ArialMT-20" transform="scale(0.015625)"/>
      <path id="ArialMT-41" d="M -9 0 
L 1750 4581 
L 2403 4581 
L 4278 0 
L 3588 0 
L 3053 1388 
L 1138 1388 
L 634 0 
L -9 0 
z
M 1313 1881 
L 2866 1881 
L 2388 3150 
Q 2169 3728 2063 4100 
Q 1975 3659 1816 3225 
L 1313 1881 
z
" transform="scale(0.015625)"/>
      <path id="ArialMT-67" d="M 319 -275 
L 866 -356 
Q 900 -609 1056 -725 
Q 1266 -881 1628 -881 
Q 2019 -881 2231 -725 
Q 2444 -569 2519 -288 
Q 2563 -116 2559 434 
Q 2191 0 1641 0 
Q 956 0 581 494 
Q 206 988 206 1678 
Q 206 2153 378 2554 
Q 550 2956 876 3175 
Q 1203 3394 1644 3394 
Q 2231 3394 2613 2919 
L 2613 3319 
L 3131 3319 
L 3131 450 
Q 3131 -325 2973 -648 
Q 2816 -972 2473 -1159 
Q 2131 -1347 1631 -1347 
Q 1038 -1347 672 -1080 
Q 306 -813 319 -275 
z
M 784 1719 
Q 784 1066 1043 766 
Q 1303 466 1694 466 
Q 2081 466 2343 764 
Q 2606 1063 2606 1700 
Q 2606 2309 2336 2618 
Q 2066 2928 1684 2928 
Q 1309 2928 1046 2623 
Q 784 2319 784 1719 
z
" transform="scale(0.015625)"/>
      <path id="ArialMT-33" d="M 269 1209 
L 831 1284 
Q 928 806 1161 595 
Q 1394 384 1728 384 
Q 2125 384 2398 659 
Q 2672 934 2672 1341 
Q 2672 1728 2419 1979 
Q 2166 2231 1775 2231 
Q 1616 2231 1378 2169 
L 1441 2663 
Q 1497 2656 1531 2656 
Q 1891 2656 2178 2843 
Q 2466 3031 2466 3422 
Q 2466 3731 2256 3934 
Q 2047 4138 1716 4138 
Q 1388 4138 1169 3931 
Q 950 3725 888 3313 
L 325 3413 
Q 428 3978 793 4289 
Q 1159 4600 1703 4600 
Q 2078 4600 2393 4439 
Q 2709 4278 2876 4000 
Q 3044 3722 3044 3409 
Q 3044 3113 2884 2869 
Q 2725 2625 2413 2481 
Q 2819 2388 3044 2092 
Q 3269 1797 3269 1353 
Q 3269 753 2831 336 
Q 2394 -81 1725 -81 
Q 1122 -81 723 278 
Q 325 638 269 1209 
z
" transform="scale(0.015625)"/>
      <path id="ArialMT-2e" d="M 581 0 
L 581 641 
L 1222 641 
L 1222 0 
L 581 0 
z
" transform="scale(0.015625)"/>
      <path id="ArialMT-37" d="M 303 3981 
L 303 4522 
L 3269 4522 
L 3269 4084 
Q 2831 3619 2401 2847 
Q 1972 2075 1738 1259 
Q 1569 684 1522 0 
L 944 0 
Q 953 541 1156 1306 
Q 1359 2072 1739 2783 
Q 2119 3494 2547 3981 
L 303 3981 
z
" transform="scale(0.015625)"/>
     </defs>
     <use xlink:href="#ArialMT-4d"/>
     <use xlink:href="#ArialMT-65" x="83.300781"/>
     <use xlink:href="#ArialMT-61" x="138.916016"/>
     <use xlink:href="#ArialMT-6e" x="194.53125"/>
     <use xlink:href="#ArialMT-20" x="250.146484"/>
     <use xlink:href="#ArialMT-41" x="272.429688"/>
     <use xlink:href="#ArialMT-67" x="339.128906"/>
     <use xlink:href="#ArialMT-65" x="394.744141"/>
     <use xlink:href="#ArialMT-20" x="450.359375"/>
     <use xlink:href="#ArialMT-33" x="478.142578"/>
     <use xlink:href="#ArialMT-30" x="533.757812"/>
     <use xlink:href="#ArialMT-2e" x="589.373047"/>
     <use xlink:href="#ArialMT-37" x="617.15625"/>
    </g>
    <!--  -->
    <g style="fill: #262626" transform="translate(197.747881 67.332105) scale(0.14 -0.14)"/>
   </g>
   <g id="text_7">
    <!--  n = 30 -->
    <g style="fill: #262626" transform="translate(242.310205 67.332105) scale(0.14 -0.14)">
     <defs>
      <path id="ArialMT-3d" d="M 3381 2694 
L 356 2694 
L 356 3219 
L 3381 3219 
L 3381 2694 
z
M 3381 1303 
L 356 1303 
L 356 1828 
L 3381 1828 
L 3381 1303 
z
" transform="scale(0.015625)"/>
     </defs>
     <use xlink:href="#ArialMT-20"/>
     <use xlink:href="#ArialMT-6e" x="27.783203"/>
     <use xlink:href="#ArialMT-20" x="83.398438"/>
     <use xlink:href="#ArialMT-3d" x="111.181641"/>
     <use xlink:href="#ArialMT-20" x="169.580078"/>
     <use xlink:href="#ArialMT-33" x="197.363281"/>
     <use xlink:href="#ArialMT-30" x="252.978516"/>
    </g>
   </g>
   <g id="text_8">
    <!-- iEEG -->
    <g style="fill: #262626" transform="translate(149.650409 21.515625) scale(0.2 -0.2)">
     <defs>
      <path id="ArialMT-69" d="M 425 3934 
L 425 4581 
L 988 4581 
L 988 3934 
L 425 3934 
z
M 425 0 
L 425 3319 
L 988 3319 
L 988 0 
L 425 0 
z
" transform="scale(0.015625)"/>
      <path id="ArialMT-45" d="M 506 0 
L 506 4581 
L 3819 4581 
L 3819 4041 
L 1113 4041 
L 1113 2638 
L 3647 2638 
L 3647 2100 
L 1113 2100 
L 1113 541 
L 3925 541 
L 3925 0 
L 506 0 
z
" transform="scale(0.015625)"/>
      <path id="ArialMT-47" d="M 2638 1797 
L 2638 2334 
L 4578 2338 
L 4578 638 
Q 4131 281 3656 101 
Q 3181 -78 2681 -78 
Q 2006 -78 1454 211 
Q 903 500 622 1047 
Q 341 1594 341 2269 
Q 341 2938 620 3517 
Q 900 4097 1425 4378 
Q 1950 4659 2634 4659 
Q 3131 4659 3532 4498 
Q 3934 4338 4162 4050 
Q 4391 3763 4509 3300 
L 3963 3150 
Q 3859 3500 3706 3700 
Q 3553 3900 3268 4020 
Q 2984 4141 2638 4141 
Q 2222 4141 1919 4014 
Q 1616 3888 1430 3681 
Q 1244 3475 1141 3228 
Q 966 2803 966 2306 
Q 966 1694 1177 1281 
Q 1388 869 1791 669 
Q 2194 469 2647 469 
Q 3041 469 3416 620 
Q 3791 772 3984 944 
L 3984 1797 
L 2638 1797 
z
" transform="scale(0.015625)"/>
     </defs>
     <use xlink:href="#ArialMT-69"/>
     <use xlink:href="#ArialMT-45" x="22.216797"/>
     <use xlink:href="#ArialMT-45" x="88.916016"/>
     <use xlink:href="#ArialMT-47" x="155.615234"/>
    </g>
   </g>
  </g>
  <g id="axes_2">
   <g id="patch_11">
    <path d="M 320.013766 226.598025 
L 567.582234 226.598025 
L 567.582234 27.515625 
L 320.013766 27.515625 
z
" style="fill: #eaeaf2"/>
   </g>
   <g id="matplotlib.axis_3">
    <g id="xtick_3">
     <g id="text_9">
      <!-- 20 -->
      <g style="fill: #262626" transform="translate(363.448144 244.976225) scale(0.1408 -0.1408)">
       <use xlink:href="#ArialMT-32"/>
       <use xlink:href="#ArialMT-30" x="55.615234"/>
      </g>
     </g>
    </g>
    <g id="xtick_4">
     <g id="text_10">
      <!-- 40 -->
      <g style="fill: #262626" transform="translate(463.475808 244.976225) scale(0.1408 -0.1408)">
       <use xlink:href="#ArialMT-34"/>
       <use xlink:href="#ArialMT-30" x="55.615234"/>
      </g>
     </g>
    </g>
    <g id="text_11">
     <!-- Age -->
     <g style="fill: #262626" transform="translate(430.1336 262.769025) scale(0.1536 -0.1536)">
      <use xlink:href="#ArialMT-41"/>
      <use xlink:href="#ArialMT-67" x="66.699219"/>
      <use xlink:href="#ArialMT-65" x="122.314453"/>
     </g>
    </g>
   </g>
   <g id="matplotlib.axis_4">
    <g id="ytick_3"/>
    <g id="ytick_4"/>
   </g>
   <g id="patch_12">
    <path d="M 361.275177 226.598025 
L 369.004588 226.598025 
L 369.004588 137.37342 
L 361.275177 137.37342 
z
" clip-path="url(#p6c08aef296)" style="fill: #5dd39e; fill-opacity: 0.8; stroke: #ffffff; stroke-width: 0.729642; stroke-linejoin: miter"/>
   </g>
   <g id="patch_13">
    <path d="M 369.004588 226.598025 
L 376.733998 226.598025 
L 376.733998 148.526496 
L 369.004588 148.526496 
z
" clip-path="url(#p6c08aef296)" style="fill: #5dd39e; fill-opacity: 0.8; stroke: #ffffff; stroke-width: 0.729642; stroke-linejoin: miter"/>
   </g>
   <g id="patch_14">
    <path d="M 376.733998 226.598025 
L 384.463408 226.598025 
L 384.463408 142.949958 
L 376.733998 142.949958 
z
" clip-path="url(#p6c08aef296)" style="fill: #5dd39e; fill-opacity: 0.8; stroke: #ffffff; stroke-width: 0.729642; stroke-linejoin: miter"/>
   </g>
   <g id="patch_15">
    <path d="M 384.463408 226.598025 
L 392.192819 226.598025 
L 392.192819 36.995739 
L 384.463408 36.995739 
z
" clip-path="url(#p6c08aef296)" style="fill: #5dd39e; fill-opacity: 0.8; stroke: #ffffff; stroke-width: 0.729642; stroke-linejoin: miter"/>
   </g>
   <g id="patch_16">
    <path d="M 392.192819 226.598025 
L 399.922229 226.598025 
L 399.922229 204.291874 
L 392.192819 204.291874 
z
" clip-path="url(#p6c08aef296)" style="fill: #5dd39e; fill-opacity: 0.8; stroke: #ffffff; stroke-width: 0.729642; stroke-linejoin: miter"/>
   </g>
   <g id="patch_17">
    <path d="M 399.922229 226.598025 
L 407.65164 226.598025 
L 407.65164 137.37342 
L 399.922229 137.37342 
z
" clip-path="url(#p6c08aef296)" style="fill: #5dd39e; fill-opacity: 0.8; stroke: #ffffff; stroke-width: 0.729642; stroke-linejoin: miter"/>
   </g>
   <g id="patch_18">
    <path d="M 407.65164 226.598025 
L 415.38105 226.598025 
L 415.38105 215.444949 
L 407.65164 215.444949 
z
" clip-path="url(#p6c08aef296)" style="fill: #5dd39e; fill-opacity: 0.8; stroke: #ffffff; stroke-width: 0.729642; stroke-linejoin: miter"/>
   </g>
   <g id="patch_19">
    <path d="M 415.38105 226.598025 
L 423.11046 226.598025 
L 423.11046 198.715336 
L 415.38105 198.715336 
z
" clip-path="url(#p6c08aef296)" style="fill: #5dd39e; fill-opacity: 0.8; stroke: #ffffff; stroke-width: 0.729642; stroke-linejoin: miter"/>
   </g>
   <g id="patch_20">
    <path d="M 423.11046 226.598025 
L 430.839871 226.598025 
L 430.839871 221.021487 
L 423.11046 221.021487 
z
" clip-path="url(#p6c08aef296)" style="fill: #5dd39e; fill-opacity: 0.8; stroke: #ffffff; stroke-width: 0.729642; stroke-linejoin: miter"/>
   </g>
   <g id="patch_21">
    <path d="M 430.839871 226.598025 
L 438.569281 226.598025 
L 438.569281 221.021487 
L 430.839871 221.021487 
z
" clip-path="url(#p6c08aef296)" style="fill: #5dd39e; fill-opacity: 0.8; stroke: #ffffff; stroke-width: 0.729642; stroke-linejoin: miter"/>
   </g>
   <g id="patch_22">
    <path d="M 438.569281 226.598025 
L 446.298692 226.598025 
L 446.298692 215.444949 
L 438.569281 215.444949 
z
" clip-path="url(#p6c08aef296)" style="fill: #5dd39e; fill-opacity: 0.8; stroke: #ffffff; stroke-width: 0.729642; stroke-linejoin: miter"/>
   </g>
   <g id="patch_23">
    <path d="M 320.013766 226.598025 
L 320.013766 27.515625 
" style="fill: none; stroke: #ffffff; stroke-linejoin: miter; stroke-linecap: square"/>
   </g>
   <g id="patch_24">
    <path d="M 320.013766 226.598025 
L 567.582234 226.598025 
" style="fill: none; stroke: #ffffff; stroke-linejoin: miter; stroke-linecap: square"/>
   </g>
   <g id="text_12">
    <!-- Mean Age 23.3 -->
    <g style="fill: #262626" transform="translate(468.554847 52.360417) scale(0.14 -0.14)">
     <use xlink:href="#ArialMT-4d"/>
     <use xlink:href="#ArialMT-65" x="83.300781"/>
     <use xlink:href="#ArialMT-61" x="138.916016"/>
     <use xlink:href="#ArialMT-6e" x="194.53125"/>
     <use xlink:href="#ArialMT-20" x="250.146484"/>
     <use xlink:href="#ArialMT-41" x="272.429688"/>
     <use xlink:href="#ArialMT-67" x="339.128906"/>
     <use xlink:href="#ArialMT-65" x="394.744141"/>
     <use xlink:href="#ArialMT-20" x="450.359375"/>
     <use xlink:href="#ArialMT-32" x="478.142578"/>
     <use xlink:href="#ArialMT-33" x="533.757812"/>
     <use xlink:href="#ArialMT-2e" x="589.373047"/>
     <use xlink:href="#ArialMT-33" x="617.15625"/>
    </g>
    <!--  -->
    <g style="fill: #262626" transform="translate(468.554847 67.332105) scale(0.14 -0.14)"/>
   </g>
   <g id="text_13">
    <!--  n = 110 -->
    <g style="fill: #262626" transform="translate(513.117171 67.332105) scale(0.14 -0.14)">
     <defs>
      <path id="ArialMT-31" d="M 2384 0 
L 1822 0 
L 1822 3584 
Q 1619 3391 1289 3197 
Q 959 3003 697 2906 
L 697 3450 
Q 1169 3672 1522 3987 
Q 1875 4303 2022 4600 
L 2384 4600 
L 2384 0 
z
" transform="scale(0.015625)"/>
     </defs>
     <use xlink:href="#ArialMT-20"/>
     <use xlink:href="#ArialMT-6e" x="27.783203"/>
     <use xlink:href="#ArialMT-20" x="83.398438"/>
     <use xlink:href="#ArialMT-3d" x="111.181641"/>
     <use xlink:href="#ArialMT-20" x="169.580078"/>
     <use xlink:href="#ArialMT-31" x="197.363281"/>
     <use xlink:href="#ArialMT-31" x="245.603516"/>
     <use xlink:href="#ArialMT-30" x="301.21875"/>
    </g>
   </g>
   <g id="text_14">
    <!-- fMRI -->
    <g style="fill: #262626" transform="translate(422.690187 21.515625) scale(0.2 -0.2)">
     <defs>
      <path id="ArialMT-66" d="M 556 0 
L 556 2881 
L 59 2881 
L 59 3319 
L 556 3319 
L 556 3672 
Q 556 4006 616 4169 
Q 697 4388 901 4523 
Q 1106 4659 1475 4659 
Q 1713 4659 2000 4603 
L 1916 4113 
Q 1741 4144 1584 4144 
Q 1328 4144 1222 4034 
Q 1116 3925 1116 3625 
L 1116 3319 
L 1763 3319 
L 1763 2881 
L 1116 2881 
L 1116 0 
L 556 0 
z
" transform="scale(0.015625)"/>
      <path id="ArialMT-52" d="M 503 0 
L 503 4581 
L 2534 4581 
Q 3147 4581 3465 4457 
Q 3784 4334 3975 4021 
Q 4166 3709 4166 3331 
Q 4166 2844 3850 2509 
Q 3534 2175 2875 2084 
Q 3116 1969 3241 1856 
Q 3506 1613 3744 1247 
L 4541 0 
L 3778 0 
L 3172 953 
Q 2906 1366 2734 1584 
Q 2563 1803 2427 1890 
Q 2291 1978 2150 2013 
Q 2047 2034 1813 2034 
L 1109 2034 
L 1109 0 
L 503 0 
z
M 1109 2559 
L 2413 2559 
Q 2828 2559 3062 2645 
Q 3297 2731 3419 2920 
Q 3541 3109 3541 3331 
Q 3541 3656 3305 3865 
Q 3069 4075 2559 4075 
L 1109 4075 
L 1109 2559 
z
" transform="scale(0.015625)"/>
      <path id="ArialMT-49" d="M 597 0 
L 597 4581 
L 1203 4581 
L 1203 0 
L 597 0 
z
" transform="scale(0.015625)"/>
     </defs>
     <use xlink:href="#ArialMT-66"/>
     <use xlink:href="#ArialMT-4d" x="27.783203"/>
     <use xlink:href="#ArialMT-52" x="111.083984"/>
     <use xlink:href="#ArialMT-49" x="183.300781"/>
    </g>
   </g>
  </g>
  <g id="axes_3">
   <g id="patch_25">
    <path d="M 590.820732 226.598025 
L 838.3892 226.598025 
L 838.3892 27.515625 
L 590.820732 27.515625 
z
" style="fill: #eaeaf2"/>
   </g>
   <g id="matplotlib.axis_5">
    <g id="xtick_5">
     <g id="text_15">
      <!-- 20 -->
      <g style="fill: #262626" transform="translate(634.255109 244.976225) scale(0.1408 -0.1408)">
       <use xlink:href="#ArialMT-32"/>
       <use xlink:href="#ArialMT-30" x="55.615234"/>
      </g>
     </g>
    </g>
    <g id="xtick_6">
     <g id="text_16">
      <!-- 40 -->
      <g style="fill: #262626" transform="translate(734.282773 244.976225) scale(0.1408 -0.1408)">
       <use xlink:href="#ArialMT-34"/>
       <use xlink:href="#ArialMT-30" x="55.615234"/>
      </g>
     </g>
    </g>
   </g>
   <g id="matplotlib.axis_6">
    <g id="ytick_5"/>
    <g id="ytick_6"/>
   </g>
   <g id="patch_26">
    <path d="M 632.082143 226.598025 
L 642.084909 226.598025 
L 642.084909 137.37342 
L 632.082143 137.37342 
z
" clip-path="url(#pa2e5e9d106)" style="fill: #ffbd00; fill-opacity: 0.8; stroke: #ffffff; stroke-width: 0.8; stroke-linejoin: miter"/>
   </g>
   <g id="patch_27">
    <path d="M 642.084909 226.598025 
L 652.087676 226.598025 
L 652.087676 64.878428 
L 642.084909 64.878428 
z
" clip-path="url(#pa2e5e9d106)" style="fill: #ffbd00; fill-opacity: 0.8; stroke: #ffffff; stroke-width: 0.8; stroke-linejoin: miter"/>
   </g>
   <g id="patch_28">
    <path d="M 652.087676 226.598025 
L 662.090442 226.598025 
L 662.090442 126.220344 
L 652.087676 126.220344 
z
" clip-path="url(#pa2e5e9d106)" style="fill: #ffbd00; fill-opacity: 0.8; stroke: #ffffff; stroke-width: 0.8; stroke-linejoin: miter"/>
   </g>
   <g id="patch_29">
    <path d="M 662.090442 226.598025 
L 672.093209 226.598025 
L 672.093209 159.679571 
L 662.090442 159.679571 
z
" clip-path="url(#pa2e5e9d106)" style="fill: #ffbd00; fill-opacity: 0.8; stroke: #ffffff; stroke-width: 0.8; stroke-linejoin: miter"/>
   </g>
   <g id="patch_30">
    <path d="M 672.093209 226.598025 
L 682.095975 226.598025 
L 682.095975 176.409185 
L 672.093209 176.409185 
z
" clip-path="url(#pa2e5e9d106)" style="fill: #ffbd00; fill-opacity: 0.8; stroke: #ffffff; stroke-width: 0.8; stroke-linejoin: miter"/>
   </g>
   <g id="patch_31">
    <path d="M 682.095975 226.598025 
L 692.098741 226.598025 
L 692.098741 181.985722 
L 682.095975 181.985722 
z
" clip-path="url(#pa2e5e9d106)" style="fill: #ffbd00; fill-opacity: 0.8; stroke: #ffffff; stroke-width: 0.8; stroke-linejoin: miter"/>
   </g>
   <g id="patch_32">
    <path d="M 692.098741 226.598025 
L 702.101508 226.598025 
L 702.101508 209.868412 
L 692.098741 209.868412 
z
" clip-path="url(#pa2e5e9d106)" style="fill: #ffbd00; fill-opacity: 0.8; stroke: #ffffff; stroke-width: 0.8; stroke-linejoin: miter"/>
   </g>
   <g id="patch_33">
    <path d="M 702.101508 226.598025 
L 712.104274 226.598025 
L 712.104274 221.021487 
L 702.101508 221.021487 
z
" clip-path="url(#pa2e5e9d106)" style="fill: #ffbd00; fill-opacity: 0.8; stroke: #ffffff; stroke-width: 0.8; stroke-linejoin: miter"/>
   </g>
   <g id="patch_34">
    <path d="M 712.104274 226.598025 
L 722.107041 226.598025 
L 722.107041 221.021487 
L 712.104274 221.021487 
z
" clip-path="url(#pa2e5e9d106)" style="fill: #ffbd00; fill-opacity: 0.8; stroke: #ffffff; stroke-width: 0.8; stroke-linejoin: miter"/>
   </g>
   <g id="patch_35">
    <path d="M 590.820732 226.598025 
L 590.820732 27.515625 
" style="fill: none; stroke: #ffffff; stroke-linejoin: miter; stroke-linecap: square"/>
   </g>
   <g id="patch_36">
    <path d="M 590.820732 226.598025 
L 838.3892 226.598025 
" style="fill: none; stroke: #ffffff; stroke-linejoin: miter; stroke-linecap: square"/>
   </g>
   <g id="text_17">
    <!-- Mean Age 22.8 -->
    <g style="fill: #262626" transform="translate(739.361813 52.360417) scale(0.14 -0.14)">
     <defs>
      <path id="ArialMT-38" d="M 1131 2484 
Q 781 2613 612 2850 
Q 444 3088 444 3419 
Q 444 3919 803 4259 
Q 1163 4600 1759 4600 
Q 2359 4600 2725 4251 
Q 3091 3903 3091 3403 
Q 3091 3084 2923 2848 
Q 2756 2613 2416 2484 
Q 2838 2347 3058 2040 
Q 3278 1734 3278 1309 
Q 3278 722 2862 322 
Q 2447 -78 1769 -78 
Q 1091 -78 675 323 
Q 259 725 259 1325 
Q 259 1772 486 2073 
Q 713 2375 1131 2484 
z
M 1019 3438 
Q 1019 3113 1228 2906 
Q 1438 2700 1772 2700 
Q 2097 2700 2305 2904 
Q 2513 3109 2513 3406 
Q 2513 3716 2298 3927 
Q 2084 4138 1766 4138 
Q 1444 4138 1231 3931 
Q 1019 3725 1019 3438 
z
M 838 1322 
Q 838 1081 952 856 
Q 1066 631 1291 507 
Q 1516 384 1775 384 
Q 2178 384 2440 643 
Q 2703 903 2703 1303 
Q 2703 1709 2433 1975 
Q 2163 2241 1756 2241 
Q 1359 2241 1098 1978 
Q 838 1716 838 1322 
z
" transform="scale(0.015625)"/>
     </defs>
     <use xlink:href="#ArialMT-4d"/>
     <use xlink:href="#ArialMT-65" x="83.300781"/>
     <use xlink:href="#ArialMT-61" x="138.916016"/>
     <use xlink:href="#ArialMT-6e" x="194.53125"/>
     <use xlink:href="#ArialMT-20" x="250.146484"/>
     <use xlink:href="#ArialMT-41" x="272.429688"/>
     <use xlink:href="#ArialMT-67" x="339.128906"/>
     <use xlink:href="#ArialMT-65" x="394.744141"/>
     <use xlink:href="#ArialMT-20" x="450.359375"/>
     <use xlink:href="#ArialMT-32" x="478.142578"/>
     <use xlink:href="#ArialMT-32" x="533.757812"/>
     <use xlink:href="#ArialMT-2e" x="589.373047"/>
     <use xlink:href="#ArialMT-38" x="617.15625"/>
    </g>
    <!--  -->
    <g style="fill: #262626" transform="translate(739.361813 67.332105) scale(0.14 -0.14)"/>
   </g>
   <g id="text_18">
    <!--  n = 97 -->
    <g style="fill: #262626" transform="translate(783.924137 67.332105) scale(0.14 -0.14)">
     <defs>
      <path id="ArialMT-39" d="M 350 1059 
L 891 1109 
Q 959 728 1153 556 
Q 1347 384 1650 384 
Q 1909 384 2104 503 
Q 2300 622 2425 820 
Q 2550 1019 2634 1356 
Q 2719 1694 2719 2044 
Q 2719 2081 2716 2156 
Q 2547 1888 2255 1720 
Q 1963 1553 1622 1553 
Q 1053 1553 659 1965 
Q 266 2378 266 3053 
Q 266 3750 677 4175 
Q 1088 4600 1706 4600 
Q 2153 4600 2523 4359 
Q 2894 4119 3086 3673 
Q 3278 3228 3278 2384 
Q 3278 1506 3087 986 
Q 2897 466 2520 194 
Q 2144 -78 1638 -78 
Q 1100 -78 759 220 
Q 419 519 350 1059 
z
M 2653 3081 
Q 2653 3566 2395 3850 
Q 2138 4134 1775 4134 
Q 1400 4134 1122 3828 
Q 844 3522 844 3034 
Q 844 2597 1108 2323 
Q 1372 2050 1759 2050 
Q 2150 2050 2401 2323 
Q 2653 2597 2653 3081 
z
" transform="scale(0.015625)"/>
     </defs>
     <use xlink:href="#ArialMT-20"/>
     <use xlink:href="#ArialMT-6e" x="27.783203"/>
     <use xlink:href="#ArialMT-20" x="83.398438"/>
     <use xlink:href="#ArialMT-3d" x="111.181641"/>
     <use xlink:href="#ArialMT-20" x="169.580078"/>
     <use xlink:href="#ArialMT-39" x="197.363281"/>
     <use xlink:href="#ArialMT-37" x="252.978516"/>
    </g>
   </g>
   <g id="text_19">
    <!-- MEG -->
    <g style="fill: #262626" transform="translate(691.826841 21.515625) scale(0.2 -0.2)">
     <use xlink:href="#ArialMT-4d"/>
     <use xlink:href="#ArialMT-45" x="83.300781"/>
     <use xlink:href="#ArialMT-47" x="150"/>
    </g>
   </g>
  </g>
 </g>
 <defs>
  <clipPath id="p2f84165aa0">
   <rect x="49.2068" y="27.515625" width="247.568468" height="199.0824"/>
  </clipPath>
  <clipPath id="p6c08aef296">
   <rect x="320.013766" y="27.515625" width="247.568468" height="199.0824"/>
  </clipPath>
  <clipPath id="pa2e5e9d106">
   <rect x="590.820732" y="27.515625" width="247.568468" height="199.0824"/>
  </clipPath>
 </defs>
</svg>
